# xmcd
#
# Track frame offsets:
#	182
#	17582
#	30462
#	44782
#	55157
#	70810
#	82595
#	99255
#	109170
#	134585
#	149500
#	162687
#	190292
#	211140
#	224672
#	239122
#	259000
#	280767
#	301107
#	330115
#
# Disc length: 4628 seconds
#
# Revision: 0
# Processed by: cddbd v1.5.1PL0 Copyright (c) Steve Scherf et al.
# Submitted via: EasyCDDAExtractor 4.5.0.2
#
DISCID=23121214
DTITLE=Troels Jensen - I´m your boogie woogie man
DYEAR=1994
DGENRE=Blues
TTITLE0=I´m your boogie woogie man
TTITLE1=Green grass shuffle
TTITLE2=Ain´t misbehavin
TTITLE3=Hurry home
TTITLE4=After´while you´ll be sorry
TTITLE5=Louise´s Shack
TTITLE6=Swanee river
TTITLE7=T.J.boogie
TTITLE8=Moterless chrildren
TTITLE9=Song for Jeppe
TTITLE10=Ma Belle Josefine
TTITLE11=C-jam blues
TTITLE12=Preachin blues
TTITLE13=Hard but fair
TTITLE14=I´m  ready
TTITLE15=I´m the blues
TTITLE16=Bring it on home
TTITLE17=Beep´m all
TTITLE18=Stick around
TTITLE19=I just wanna make love to you
EXTD=
EXTT0=
EXTT1=
EXTT2=
EXTT3=
EXTT4=
EXTT5=
EXTT6=
EXTT7=
EXTT8=
EXTT9=
EXTT10=
EXTT11=
EXTT12=
EXTT13=
EXTT14=
EXTT15=
EXTT16=
EXTT17=
EXTT18=
EXTT19=
PLAYORDER=
